<svg height="189.24" viewBox="0 0 936.534 189.24" width="936.534" xmlns="http://www.w3.org/2000/svg"><g transform="translate(-.058 9.455)"><path d="m169.212.244a109.468 109.468 0 0 0 -42.288 8.227 109.468 109.468 0 0 0 -42.288-8.227c-46.711 0-84.578 27.524-84.578 61.477a45.025 45.025 0 0 0 .23 4.526c.025.257.056.511.085.767 3.693 31.475 40 56.185 84.263 56.185a112.9 112.9 0 0 0 29.94-3.971 100.924 100.924 0 0 0 12.348-4.256c23.3-9.8 39.567-27.441 41.974-47.959.029-.257.06-.511.086-.767h-83.938c2.72-20.192 18.872-37.515 41.879-47.191a101.273 101.273 0 0 1 12.348-4.255 113.016 113.016 0 0 1 29.94-3.968c43.9 0 79.98 24.308 84.169 55.417.033.254.064.511.094.767.028-.257.061-.511.087-.767.148-1.5.228-3 .228-4.526 0-33.953-37.867-61.479-84.579-61.479z" fill="#74caf1"/><path d="m253.475 67.015c-.03-.257-.061-.513-.094-.767-4.189-31.107-40.271-55.417-84.169-55.417a112.967 112.967 0 0 0 -29.94 3.968 101.376 101.376 0 0 0 -12.348 4.258c-23.007 9.676-39.16 27-41.88 47.191h83.941c-.027.257-.057.511-.086.767-2.407 20.517-18.676 38.162-41.974 47.96a101.21 101.21 0 0 1 -12.348 4.256 112.979 112.979 0 0 1 -29.94 3.971c-44.258-.002-80.57-24.711-84.263-56.186a45.489 45.489 0 0 0 -.314 5.295c0 33.951 37.867 61.477 84.578 61.477a109.45 109.45 0 0 0 42.288-8.227 109.454 109.454 0 0 0 42.288 8.227c46.711 0 84.578-27.525 84.578-61.477a45.773 45.773 0 0 0 -.317-5.296z" fill="#3b9ac9"/></g><g fill="#28303a" transform="translate(286.942 -.545)"><path d="m100.9 56.785a104.006 104.006 0 0 1 -1.994 19.665 116.454 116.454 0 0 1 -5.706 19.95 77.672 77.672 0 0 1 -9.123 17.2 38.561 38.561 0 0 1 -12.064 11.4v.568l24.328-.568-3.231 19.19h-52.646q-19.386 0-29.459-12.065t-10.074-34.68a132.984 132.984 0 0 1 4.087-32.585 109.66 109.66 0 0 1 11.782-29.26 68.546 68.546 0 0 1 18.912-21.09 42.2 42.2 0 0 1 25.276-8.075 38.844 38.844 0 0 1 17.392 3.705 34.913 34.913 0 0 1 12.543 10.355 45.5 45.5 0 0 1 7.509 15.96 79.268 79.268 0 0 1 2.468 20.33zm-22.806 3.228a97.405 97.405 0 0 0 -.76-12.255 39.633 39.633 0 0 0 -2.756-10.64 18.785 18.785 0 0 0 -5.607-7.505 14.588 14.588 0 0 0 -9.314-2.85q-8.553 0-15.3 7.03a60.16 60.16 0 0 0 -11.4 17.575 110.022 110.022 0 0 0 -7.127 22.8 116.12 116.12 0 0 0 -2.47 22.894q0 12.732 4.94 19.95t14.635 7.221q8.171 0 14.729-6.271a53.609 53.609 0 0 0 11.116-15.769 91.261 91.261 0 0 0 6.937-20.806 103.96 103.96 0 0 0 2.377-21.374z"/><path d="m180.724 120.245q-.383 1.9-.856 5.225t-1.046 6.892q-.57 3.573-1.045 6.852t-.664 4.971h-19.576q.378-2.85.855-7.315t1.237-8.645h-.382a40.108 40.108 0 0 1 -10.378 13.586 23.433 23.433 0 0 1 -15.658 5.6 22.06 22.06 0 0 1 -9.782-1.975 17.02 17.02 0 0 1 -6.429-5.258 22.815 22.815 0 0 1 -3.549-7.525 32.737 32.737 0 0 1 -1.15-8.607q0-3.037.384-7.22t1.149-8.17l10.736-60.8h20.613l-10.644 60.609a46.486 46.486 0 0 0 -.95 9.121 16.393 16.393 0 0 0 1.987 8.36q1.986 3.42 7.474 3.419a13.2 13.2 0 0 0 6.907-1.994 21.821 21.821 0 0 0 5.96-5.415 34.053 34.053 0 0 0 4.541-8.075 48.762 48.762 0 0 0 2.839-10.165l9.651-55.859h20.7z"/><path d="m223.485 144.185h-20.525l16.915-96.522h20.525zm23-126.54a14.686 14.686 0 0 1 -3.8 10.26 12.311 12.311 0 0 1 -9.5 4.18q-5.323 0-8.171-3.325a11.46 11.46 0 0 1 -2.851-7.7 15.234 15.234 0 0 1 3.8-10.165 12.168 12.168 0 0 1 9.69-4.465q5.135 0 7.984 3.135a11.539 11.539 0 0 1 2.846 8.08z"/><path d="m305.78 67.613a12.42 12.42 0 0 0 -4.276-3.325 15.686 15.686 0 0 0 -6.746-1.235 13.509 13.509 0 0 0 -9.884 4.465 39.5 39.5 0 0 0 -7.509 11.305 67.57 67.57 0 0 0 -4.751 14.914 77.262 77.262 0 0 0 -1.614 15.106q0 9.12 3.038 14.344t11.025 5.225a14.719 14.719 0 0 0 6.27-1.235 32.245 32.245 0 0 0 5.7-3.515l6.276 16.338a32.289 32.289 0 0 1 -9.884 5.415 35.44 35.44 0 0 1 -11.785 1.994 31.375 31.375 0 0 1 -13.967-2.85 26.833 26.833 0 0 1 -9.6-7.788 32.764 32.764 0 0 1 -5.605-11.687 55.832 55.832 0 0 1 -1.807-14.535 94.977 94.977 0 0 1 3.039-23.649 78.1 78.1 0 0 1 8.742-21.28 50.267 50.267 0 0 1 14.068-15.299 32.206 32.206 0 0 1 19.006-5.89q8.552 0 13.589 2.375a25.113 25.113 0 0 1 7.7 5.225z"/><path d="m361.847 93.263 23.568 50.922h-22.239l-20.335-46.55h-.381l-7.792 46.55h-20.144l24.895-143.64h20.146l-15.394 87.78h.381l32.31-40.66h23.947z"/><path d="m490.893 42.345a59.455 59.455 0 0 1 -3.136 20.14 41.146 41.146 0 0 1 -8.838 14.725 37.639 37.639 0 0 1 -13.685 9.119 47.958 47.958 0 0 1 -17.674 3.135h-16.345l-9.693 54.722h-21.285l23.375-134.523h34.211a41.608 41.608 0 0 1 12.639 1.9 29.3 29.3 0 0 1 10.549 5.89 27.959 27.959 0 0 1 7.221 10.165 37.031 37.031 0 0 1 2.661 14.727zm-20.906 3.04q0-7.98-3.895-12.635t-11.879-4.655h-12.544l-7.412 43.7h13.494q10.263 0 16.249-7.03t5.987-19.38z"/><path d="m556.084 71.413a55.556 55.556 0 0 1 -.475 7.221q-.474 3.61-1.235 7.979l-6.462 38q-.954 5.322-1.711 11.115a72.715 72.715 0 0 0 -.762 8.457h-17.293q0-1.14.187-3.04t.476-3.99q.285-2.091.571-4.085a34.146 34.146 0 0 1 .665-3.515h-.381a29.333 29.333 0 0 1 -9.313 12.35q-5.895 4.368-14.826 4.371a22.647 22.647 0 0 1 -7.7-1.331 18.138 18.138 0 0 1 -6.558-4.085 19.9 19.9 0 0 1 -4.562-7.032 27.876 27.876 0 0 1 -1.705-10.355q0-11.208 3.991-18.713a34.041 34.041 0 0 1 10.453-12.065 42.716 42.716 0 0 1 14.54-6.556 68.364 68.364 0 0 1 16.44-1.994h5.7q.756-4.178.95-6.175c.127-1.331.19-2.437.19-3.325q0-12.918-11.594-12.92a21.389 21.389 0 0 0 -10.263 2.66 37.283 37.283 0 0 0 -8.743 6.46l-8.364-12.92a44.9 44.9 0 0 1 14.254-9.785 40.173 40.173 0 0 1 16.346-3.705q14.255 0 20.717 7.125t6.467 19.853zm-28.127 26.982a35.255 35.255 0 0 0 -8.934 1.14 23.156 23.156 0 0 0 -7.792 3.61 18.087 18.087 0 0 0 -5.512 6.555 21.68 21.68 0 0 0 -2.091 9.975q0 5.7 2.664 8.263a8.958 8.958 0 0 0 6.462 2.565 12.968 12.968 0 0 0 7.792-2.468 24.076 24.076 0 0 0 5.987-6.365 41.462 41.462 0 0 0 4.276-8.55 50.975 50.975 0 0 0 2.47-9.215l.95-5.51z"/><path d="m601.127 158.053q-3.233 7.218-6.462 13.015a45.1 45.1 0 0 1 -7.415 9.975 30.76 30.76 0 0 1 -9.313 6.46 29.222 29.222 0 0 1 -11.972 2.282 35.171 35.171 0 0 1 -6.083-.475 29.4 29.4 0 0 1 -4.752-1.235l3.8-18.24q1.9 1.14 6.273 1.14a11.113 11.113 0 0 0 8.362-3.138 29.463 29.463 0 0 0 5.514-8.837l5.32-12.35-11.022-98.99h21.288l4.562 73.53h.378l28.895-73.528h21.1z"/></g></svg>