<svg enable-background="new 0 0 24 24" viewBox="0 0 24 24" xmlns="http://www.w3.org/2000/svg"><g fill="#303c42"><path d="m12 1c-4.1484375 0-8.0195312 1.6567383-10.3544922 4.4321289-.1425781.1699219-.15625.4135742-.0341797.5981445 1.8681641 2.8139648 3.4902344 4.46875 4.2685547 4.8603516.0712891.0356445.1484375.0532227.2246094.0532227.1386719 0 .2744141-.0576172.3720703-.1655273.1630859-.1821289.3974609-.5063477.5966797-.7856445.9033203-1.2626954 2.140625-2.9926759 4.3886719-2.9926759 5.4023438 0 10.2050781 1.0546875 11.7832031 1.4013672 0 0 .0976563.0214844.0986328.0214844.1279297.0292969.2666016.0048828.3779297-.0683594.1123047-.0727539.1904297-.1870117.2177734-.3173828.0410157-.194336.0605469-.3696289.0605469-.5371094 0-2.387207-5.9296875-6.5-12-6.5z"/><path d="m22.4472656 9.2519531c-3.8789062-.8305664-7.5751953-1.2519531-10.9853515-1.2519531-1.6035156 0-2.5683594 1.1665039-3.5771484 2.5776367-.6308594.881836-1.0488282 1.4223633-1.6572266 1.4223633-1.0791016 0-2.8886719-1.7138672-4.9658203-4.7026367-.1015625-.1469727-.2744141-.225586-.4541016-.2128906-.1796875.0161132-.3359375.1264648-.4101563.2895507-.1728515.3754883-.2929687.6894532-.3779296.9882813-.0126954.0449219-.0195313.0913086-.0195313.1376953 0 2.4790039 2.4746094 7.5 4.5 7.5h3.3701172c.4227295.4312134.8109741.8339233 1.1445313 1.1831055 1.1496581 1.206665 1.9904785 2.0736084 2.9853515 2.5051269v2.8117676c0 .2763672.2236328.5.5.5h2c.2763672 0 .5-.2236328.5-.5v-3.112854c1.1060791-.9851685 2.0461426-3.190979 3.328125-6.8251343.067749-.1928711.1350708-.3821411.2001343-.5639648 1.3286133-.010376 2.9973755-.7695313 4.1621704-1.8979492.1328125-.128418.1835938-.3198242.1328125-.4970703-.0507813-.1777344-.1953125-.3125001-.3759766-.3510743zm-6.9501953 2.319336c-1.2958984 3.6689453-1.9599609 4.9438477-2.2861328 5.3740234-.4033203-.1577148-.9267578-.6801758-2.0273438-1.8344727-.3243408-.34021-.7053223-.7351685-1.1172485-1.1551514.0348511-.0803223.0701294-.1604614.1045532-.2408447.5732422-1.3344726 1.1650391-2.7148437 2.8291016-2.7148437 1.2414551 0 2.0112915.1299438 2.5953979.2941895z"/></g></svg>