<svg height="723pt" preserveAspectRatio="xMidYMid meet" viewBox="0 0 1280 723" width="1280pt" xmlns="http://www.w3.org/2000/svg"><path d="m8563 7210c-55-33-77-102-53-164 9-24 5-28-112-95-109-63-124-69-138-56-24 22-57 18-106-10-47-28-59-50-49-95 7-31 73-139 108-177 11-13 19-25 16-27-9-9-3142-1916-3144-1914 0 2-30 77-65 168-34 91-90 229-123 308-59 140-61 143-87 137-27-6-28-5-120 222-50 125-141 349-201 496-60 148-109 274-109 280 1 7 23 29 50 50 27 20 50 46 52 56 4 23 230 209 261 215 12 3 128 12 258 21 312 22 356 32 314 75-72 71-408 80-1650 44-209-6-222-7-262-30-81-47-50-84 115-137 59-20 119-38 134-41 14-3 74-49 132-101l105-96 83 11c120 15 119 15 108-16-15-40-14-41 55-55 36-7 70-18 76-25 5-7 104-243 218-525 139-343 206-518 199-526-6-7 4-43 31-105 89-210 226-567 220-572-2-1-154-116-338-255-183-139-334-251-335-249 0 2-12 15-25 30-20 23-22 30-11 43 12 14 8 21-23 52-30 30-38 34-51 24-12-10-21-8-51 16-36 29-43 47-24 58 7 5 2 16-13 32-34 37-57 47-74 32-11-9-22-6-54 16-28 20-38 31-30 39 18 18 11 33-31 60-38 26-41 26-54 10-12-17-15-17-54 9-35 23-40 30-31 46 8 16 3 23-36 46-44 26-46 26-59 8-13-17-15-17-52 4-27 16-37 28-36 43 2 15-8 26-42 42-43 21-46 21-58 4s-15-17-56 0c-35 14-42 20-37 38 5 19-2 25-40 39-48 18-64 16-64-9 0-17 3-17-54 2-39 13-47 20-43 36 6 20-7 27-66 42-24 6-30 3-34-14-5-18-11-20-37-15-59 12-66 16-66 39 0 20-7 24-47 30-45 6-55 1-65-27-2-4-24-4-51-1-40 6-47 10-47 29 0 20-6 23-50 27-43 3-50 0-52-17-3-17-11-20-53-20-44 0-50 3-53 23-3 19-9 22-52 22s-49-3-52-22c-3-20-10-23-55-26-48-3-53-1-53 17s-6 21-50 21c-46 0-50-2-50-24 0-20-6-24-47-30-45-6-55-1-65 27-2 4-24 4-51 1-40-6-47-10-47-30 0-23-7-27-66-39-26-5-32-3-37 15-4 17-10 20-34 14-61-15-75-23-68-43 5-15-3-22-42-35-46-16-55-14-65 17-2 4-24 0-51-9-41-14-46-19-41-39 5-19-1-25-37-39-41-16-44-16-56-1-11 16-15 16-58-1-39-16-45-22-40-41 4-19-2-26-36-43-37-19-43-20-58-6s-21 13-59-10c-36-22-41-28-32-44 9-17 4-23-30-46-37-25-42-26-57-11-14 14-19 13-54-10-39-25-49-46-29-58 6-4-5-19-26-36-40-31-49-34-59-19-10 16-22 12-59-21-30-26-34-33-24-49 7-11 10-20 8-22-3-2-20-16-37-32-28-25-35-27-48-16-14 12-21 8-52-23s-35-38-23-52c11-13 9-20-16-48-16-17-30-33-31-35s-10 1-21 7c-17 9-25 5-51-24-35-40-38-53-16-61 12-5 10-13-13-45-28-40-41-46-59-28-8 8-19-2-41-34-28-40-30-45-15-60s14-19-11-58c-20-30-31-38-39-30-18 18-24 14-51-31-23-38-24-44-10-59s13-21-5-57c-16-32-25-39-43-35-19 3-26-3-41-39-16-40-16-44-1-55 16-12 16-15 0-58-15-39-21-44-41-39s-25 0-39-42c-16-47-14-56 17-66 4-2 0-24-9-51-14-41-19-46-38-41-20 5-24 0-33-43-12-51-10-63 13-63 17 0 17 0 3-56-10-37-15-45-30-41-23 6-25 4-33-54-6-42-5-47 15-52 18-5 21-11 15-38-3-17-6-40-6-51 0-14-6-18-22-16-21 3-23-2-26-49-3-48-1-53 17-53s21-6 21-50c0-47-2-50-25-50-24 0-25-3-25-54 0-49 2-55 22-58s23-10 26-49c3-41 0-47-20-52-21-6-23-11-20-57 4-44 6-50 27-50 18 0 24-7 29-37 9-56 8-60-15-66-19-5-20-10-14-49 9-54 12-58 35-58 14 0 22-11 30-40 12-43 7-60-16-60-17 0-17-3 0-60 10-36 18-45 36-45s25-9 35-42c11-38 11-43-6-55-18-13-18-15-2-60 15-40 21-46 38-42s25-3 40-37c19-40 19-42 0-55-19-14-18-15 3-59 19-39 25-45 45-40s26 0 42-36c18-39 18-42 2-54-16-11-15-16 9-59 23-41 28-45 46-35 22 12 25 10 55-45 14-27 14-31-2-42-16-12-15-16 11-51 16-21 29-39 30-41s11 1 22 7c16 9 24 4 50-28 28-35 29-40 15-54s-13-19 17-57c30-37 34-40 49-26 16 14 20 13 51-19s33-38 21-57-9-24 23-56c33-34 36-35 54-19 17 16 20 15 52-18 26-27 31-38 22-47-18-18-15-24 28-58 38-30 42-31 54-15 12 17 15 16 50-11 29-23 35-34 31-54s1-29 30-48c41-26 51-27 62-7 7 12 15 11 48-12 22-14 42-28 44-29 2-2-2-11-9-19-11-13-10-18 6-30 10-8 32-20 48-26 24-11 30-10 37 4 9 15 14 14 54-5 38-18 44-25 39-45s0-26 37-42c42-18 45-18 59-1s17 17 55 0c31-13 40-22 40-41s9-27 47-41c46-17 47-17 53 3 7 22 21 21 80-1 20-8 25-15 20-29-5-17 1-22 37-31 24-7 47-14 51-17 5-3 11 5 14 17 5 20 10 21 46 16 50-8 57-13 57-36 0-13 9-21 25-25 14-3 36-7 49-10 18-4 25 0 29 15 9 33 107 24 107-10 0-21 19-30 66-30 28 0 34 4 34 21 0 18 5 20 52 17 46-3 53-6 56-25 3-20 9-23 53-23 46 0 49 2 49 25 0 24 3 25 55 25 48 0 55-2 55-20 0-16 7-20 34-20 47 0 66 9 66 30s19 30 65 30c25 0 35-5 40-20s13-19 31-15c13 3 35 7 49 10 16 4 25 12 25 25 0 23 7 28 57 36 36 5 41 4 46-16 3-12 9-20 14-17 4 3 27 10 51 16 37 10 41 15 36 35-4 19-1 24 23 29 15 4 38 9 50 13 16 4 23 1 28-15 6-20 7-20 53-2 36 14 47 23 47 41 0 17 10 27 42 41 42 18 43 18 53-1s11-19 53 0c34 16 41 24 39 43-2 18 7 27 41 44 40 19 44 20 54 4 10-15 15-14 57 9 47 25 54 34 36 45-17 10-11 19 26 43 32 21 40 22 60 11 20-10 28-9 59 15 38 29 41 36 24 53-7 7 2 20 32 44 39 31 42 32 55 15 12-17 15-16 53 14 34 28 39 36 30 52-9 17-5 26 22 54 31 32 34 33 51 17 18-16 21-15 54 19 32 32 35 37 23 56s-10 25 21 57 35 33 51 19c15-14 19-11 49 26 30 38 31 43 17 57s-13 19 15 54c26 32 34 37 50 28 11-6 21-9 22-7s14 20 30 41c27 36 27 39 10 52-16 11-17 16-6 36 28 52 39 61 59 51 16-9 23-4 46 35 26 42 27 46 10 58-16 12-16 15 2 54 16 36 22 41 42 36 21-5 27 0 44 40 20 44 20 47 3 59-16 12-16 16-2 52 12 29 22 39 38 38 17-1 26 9 41 43 10 23 21 43 23 43 3 0 170 27 372 60 201 33 374 60 383 60 16 0 109-230 338-837 4-10-10-13-51-13h-56v-70-70h215 215v70 69l-72 3-71 3-160 464c-151 437-159 464-141 473 35 19 142 135 164 179 62 121 80 273 46 384-16 49-15 50 7 68 113 91 173 147 293 270 246 252 466 533 820 1052 245 359 428 648 740 1173 232 390 356 580 428 659 47 52 168 147 293 231l62 42 45-82c33-61 42-86 35-99-5-10-9-36-9-58 0-38 2-40 56-65 65-30 165-126 215-206 53-84 377-794 368-806-5-5-6-19-3-30 3-14-5-24-37-41-39-22-43-22-55-6-12 17-15 17-51-4-29-17-38-28-38-49 0-20-9-33-35-49-32-21-37-21-52-8-18 16-24 13-97-43-2-2 2-11 10-20 12-14 9-21-26-50-37-31-41-32-58-17-17 16-20 15-54-19-31-32-35-39-23-53 7-9 9-19 4-23s-21-18-36-31c-23-20-30-22-43-11-14 12-21 8-52-22-31-32-34-37-22-56s10-25-20-56c-28-29-36-33-52-23-10 6-20 9-22 7-1-3-15-20-30-39-25-31-26-35-12-51 15-17 10-31-36-83-4-5-16-4-27 2-17 9-23 5-46-29-31-47-31-49-10-65 15-10 14-16-11-53-23-35-30-40-46-32-15 9-22 3-45-35-25-44-26-47-8-59 17-13 17-15-1-55-16-36-22-41-42-36s-26-1-44-41c-16-38-17-49-7-56 7-4 16-8 19-8 4 0-1-21-10-46-13-38-20-45-38-41-18 3-25-3-38-35-19-48-19-68 0-68 18 0 19-12 4-63-8-32-14-38-30-34-21 6-31-10-42-69-5-27-3-33 14-37 18-5 20-11 14-39-12-61-15-66-35-61s-22-1-33-71c-4-22 0-30 15-34 16-4 19-12 16-51s-6-46-25-49-23-10-24-43c-1-21-2-45-3-51-1-7 9-14 22-16 18-3 22-10 22-37 0-46-9-65-31-65-16 0-19-8-19-55 0-52 1-55 25-55 23 0 25-3 25-50 0-43-3-50-20-50-22 0-25-21-14-79 5-24 12-31 30-31 20 0 24-5 24-29 0-16 3-37 6-46 5-11 0-18-16-22-20-5-21-10-15-52 9-57 11-60 34-54 20 5 23-1 36-65 4-17 3-32-2-32-27-1-32-16-19-60 11-36 18-45 36-45 19 0 26-9 38-43 13-39 13-44-3-56s-17-16-3-57c13-37 19-44 39-42s27-5 42-40c17-40 17-43 0-54-16-12-16-16 5-58 19-39 25-45 45-40 19 5 26-1 44-38 19-40 20-44 4-54-15-10-14-15 8-56 21-38 28-44 42-36 25 13 24 13 52-30 23-35 24-40 10-54-15-15-14-20 12-57 30-44 35-46 54-27 10 10 18 5 41-23 30-36 38-60 20-60s-10-24 19-58c24-28 32-32 48-23 17 8 26 4 53-24 28-29 31-36 20-50-12-14-8-21 23-53 29-28 39-34 49-24 17 17 23 16 63-19 33-29 34-33 20-49-14-15-12-19 26-50 37-29 42-31 56-17s20 13 54-10c40-26 46-37 29-48-18-11-11-22 31-49 37-25 42-26 58-12 15 14 21 13 59-10 34-21 41-29 32-39-16-19-6-31 41-55 34-18 40-19 45-5 8 19 25 19 68-2 29-14 35-20 30-40s0-26 37-43c43-19 44-19 59-1 14 18 17 18 55 1 30-13 40-23 40-40 0-19 9-26 44-38 40-13 45-13 56 2 14 19 18 19 68 5 32-8 38-14 34-30-6-21 8-30 71-44 28-6 32-4 32 15 0 20 3 21 43 15 53-9 57-12 57-35 0-19 8-23 74-33 22-4 30 0 34 15 4 16 12 19 51 16 38-2 47-7 49-24 3-18 12-23 50-27 54-6 62-3 62 24 0 15 7 19 34 19 47 0 66-9 66-31 0-16 8-19 55-19 52 0 55 1 55 25 0 23 3 25 50 25 43 0 50-3 50-20 0-22 21-25 80-14 25 5 31 11 27 26-6 21-1 24 57 32 32 4 39 2 43-15 5-19 11-20 52-14 57 9 60 11 54 34-5 20 1 23 63 36 24 5 33 2 40-13 8-18 12-19 57-5 40 11 48 18 45 35-2 17 5 24 40 36 40 13 44 13 56-3s16-17 57-3c37 13 44 19 42 39s5 27 40 42c40 17 43 17 54 0 12-16 16-16 58 5 39 19 45 25 40 45s0 26 36 42c38 18 42 18 53 3s16-14 59 11c35 20 44 30 37 41-14 23-13 25 29 53 35 23 40 24 54 10 15-15 20-14 57 12 41 28 48 39 30 50-17 11-11 22 26 50 32 24 37 25 52 12 15-14 21-12 55 18 32 28 37 37 28 53-8 16-4 25 24 52 29 28 36 31 50 20 14-12 21-8 53 23 28 29 34 39 24 49-17 17-16 23 19 63 29 33 33 34 49 20 15-14 19-12 50 26 30 37 31 42 16 57-15 16-11 26 41 91 2 3 9-1 15-7 18-18 23-15 52 29 25 36 26 43 13 57-14 15-13 22 10 60 20 33 28 40 39 31 18-15 31-5 54 42 18 34 19 40 5 45-20 8-19 32 4 71 15 24 25 30 40 26 17-4 25 3 41 38 19 43 19 44 1 59-18 14-18 17-1 55 13 30 23 40 40 40 19 0 26 9 38 44 13 40 13 45-2 56-19 14-19 18-5 68 8 32 14 38 30 34 21-6 30 8 44 70 6 29 4 33-15 33-20 0-21 3-15 43 9 53 12 57 35 57 13 0 21 9 25 25 3 14 7 37 10 51 5 20 1 27-15 31-18 5-21 12-18 52 3 39 6 46 26 49 16 3 22 10 22 30 0 15 3 37 6 49 5 18 1 23-20 29-25 6-27 10-24 53 3 39 6 46 26 49 21 3 23 8 20 55-3 45-6 52-25 55-20 3-23 9-23 53 0 42 3 49 20 49 22 0 25 21 14 79-5 25-10 30-25 26-21-7-24-1-33 59-4 33-2 39 16 44 17 4 19 10 14 41-3 20-6 42-6 49 0 6-11 12-25 12-19 0-26 7-34 38-14 50-14 62 3 62 23 0 25 11 10 62-12 39-18 47-36 45-16-2-24 7-35 41-14 40-14 44 3 56 17 13 17 15 0 60-15 39-21 45-40 40-19-4-25 1-39 38-16 41-16 44 0 56 16 11 16 15-5 57-19 39-25 45-45 40s-26 0-42 36c-18 38-18 42-3 53s15 16-9 55c-21 35-29 42-48 37-18-5-28 2-48 33-23 35-24 40-10 54 16 16 11 28-44 96-2 3-9-1-15-7-18-18-23-15-52 23-23 29-25 37-14 54 11 18 8 25-22 56-23 23-37 32-44 25-17-17-30-11-59 25-24 30-26 39-16 51 10 13 6 21-24 52-34 34-37 35-55 19-17-16-20-15-52 18-28 29-32 39-24 52 9 14 3 23-30 51-37 31-41 32-53 16s-15-15-53 11c-43 30-46 35-28 53 6 6 10 13 7 15-2 2-22 16-43 30-36 24-41 25-57 11s-21-13-58 12c-33 22-39 29-30 41 14 16 10 20-43 52-37 22-37 22-48 2l-10-21-44 22c-35 17-44 26-43 45 2 19-7 27-40 43-42 19-43 19-53 0-10-18-12-18-56-2-38 14-44 20-40 38 5 19-1 24-42 38-45 16-48 16-60-2s-17-18-55-7c-34 10-42 17-42 36s-8 25-49 35c-45 12-49 11-54-8-4-17-10-19-41-14-20 3-42 6-48 6-7 0-13 11-13 24 0 18-7 25-31 30-59 11-79 8-79-15 0-15-4-19-16-15-9 3-31 6-50 6-30 0-34 3-34 25 0 24-3 25-55 25-48 0-55-2-55-20 0-17-7-20-50-20-47 0-50 2-50 26s-2 25-52 22c-46-3-53-6-56-25-3-20-9-23-53-23-43 0-49 2-49 21s-4 21-31 15c-17-3-43-6-56-6-21 0-24-4-20-21 6-22 2-24-56-34-34-5-39-4-44 15s-11 21-42 15c-62-11-69-15-64-34 6-23 0-27-53-35-34-6-42-4-50 12-8 17-12 17-57 4-44-12-48-16-43-38 4-13 2-24-3-24s-16-3-25-6c-12-4-21 6-35 37-10 24-30 70-44 102l-26 58-33-17c-18-9-34-18-36-19-1-1 12-32 29-70 29-65 32-95 9-95-6 0-33 46-59 103-27 56-159 326-295 601-214 433-248 497-261 486-9-7-19-10-22-6-4 4-104 188-223 409-164 303-221 402-234 400-20-1-62 85-49 98 4 4 89 54 187 111s188 115 198 129c83 111-51 261-169 189zm-3903-624c-47-43-179-146-188-146-6 0-14 9-17 20-8 25 1 25-185-1-146-21-171-29-182-60-2-4-45-13-96-19l-92-12-75 68c-42 37-74 69-71 71 2 2 41-3 86-11 141-27 205-22 359 28 86 28 171 48 231 55 52 6 109 13 125 15 17 1 50 4 75 5 38 1 42-1 30-13zm3408-478c7-7 12-20 12-29 0-31-89-195-141-260-86-107-219-314-405-626-562-945-995-1586-1370-2028-132-156-347-368-438-432l-30-20-45 23c-25 12-58 26-73 29-31 8-33 16-43 150-25 323-140 832-304 1335-47 143-57 188-48 196 34 33 2715 1656 2746 1663 54 13 125 13 139-1zm-5368-1732c52-8 75-15 77-26 2-8-57-352-130-765l-133-750h-49-50l-132 745c-72 410-132 757-132 772-1 26 1 26 72 32 39 4 95 8 122 9 77 5 272-5 355-17zm7815-38c-3-29-26-350-50-713-56-830-51-777-82-773-21 3-33 23-90 153-89 206-77 167-252 778l-157 547 35 10c39 10 195 37 251 43 19 2 106 5 193 5l157 2zm180 27c149-24 412-104 459-138 14-11-18-89-295-712-171-385-312-701-313-702s-22 5-48 14l-47 15 5 46c3 26 25 340 49 697 24 358 47 683 50 723 8 84-1 80 140 57zm-8455-779c103-584 129-750 119-757-21-13-81-21-89-12-5 4-167 283-360 618-194 336-367 636-386 667l-33 58 97 46c116 56 299 118 419 143 81 17 89 17 95 2 4-9 66-353 138-765zm810 707c113-37 338-138 362-161 4-4-155-286-352-627-315-545-364-625-408-663-38-33-56-42-71-37-12 3-21 14-21 23s59 356 132 770l133 754 45-7c25-4 106-27 180-52zm6901-353c60-206 107-376 105-377-4-5-133 294-158 367-10 30-32 107-48 170-16 64-36 132-45 152-8 21-15 42-15 47 0 10 27 20 44 17 5-1 58-170 117-376zm-4928 173c71-225 98-319 147-513 56-225 130-614 118-626-2-2-61 144-130 324l-125 327 41 5 41 5v70 70l-217 3-218 2v-75-75h88 87l146-422 146-423-89-3c-138-4-277 2-250 12 21 8 23 13 17 45-11 62-15 69-35 64-15-4-21 3-29 34-14 51-14 63 3 63 23 0 26 13 12 61-11 35-18 44-34 42s-24 8-36 45c-9 26-13 48-9 50 30 10 32 18 15 65-15 41-20 47-39 42-18-4-24 2-39 40-16 43-16 46 1 59 16 12 16 15-4 55-17 33-27 41-44 39-16-2-27 7-45 39l-23 42 21 11 21 11-22 37c-32 53-36 57-53 43-12-10-19-6-42 29-25 37-26 42-11 57 14 14 13 19-10 55-14 21-23 42-19 46 14 14 551 421 557 421 3 1 31-79 62-176zm4727 75c0-5-4-8-8-8-11 0-52 87-44 94 6 6 50-69 52-86zm1593-54c104-59 262-173 340-245l47-44-377-390c-207-214-448-464-535-554l-158-164-39 27-39 27 300 672c165 370 306 687 314 706 17 40 13 40 147-35zm-1848-6c11-28 13-44 6-46-6-2-11-8-11-12 0-5 76-186 170-401 93-216 169-394 167-395-3-3-558 763-560 773-2 9 182 123 199 123 7 0 19-19 29-42zm-7649-668c211-365 384-667 384-671 0-14-81-59-94-52-29 18-1176 985-1176 992 0 11 175 182 240 234 86 70 234 167 249 165 7-2 186-302 397-668zm1691 593c93-63 196-149 271-225l63-64-527-400c-290-219-534-403-542-408-12-7-11-1 4 25 11 19 161 278 334 577 172 298 316 542 321 542 4 0 38-21 76-47zm6036-506 345-473 75-174c42-95 74-177 71-182s-13-7-21-4c-11 5-1250 834-1272 852-6 5 107 143 183 223 70 73 252 231 267 231 4 0 163-213 352-473zm2233 221c68-71 144-168 203-258 67-101 118-197 110-205-3-3-314-156-690-340l-684-334-27 32c-15 18-26 36-25 41 4 12 1059 1106 1067 1106 3 0 24-19 46-42zm-10278-577 589-495-30-43c-17-24-35-43-40-43s-333 118-729 262l-719 261 6 26c28 112 292 541 325 529 5-2 273-225 598-497zm2575 269c45-73 149-283 161-327 6-18 0-24-46-41-29-11-247-90-484-176l-430-156-179 2-178 3 538 407 537 408 17-23c10-12 38-56 64-97zm5279-356c348-234 635-428 637-430 4-3-33-87-44-102-1-1-338 81-749 184-575 144-746 190-746 202 0 28 62 197 110 299 45 96 146 273 156 273 2 0 289-192 636-426zm2851-55c19-57 44-149 55-204 33-159 35-175 20-180-10-3-1322-141-1497-158-20-2-26 5-38 37-7 22-10 43-6 47 5 5 316 159 693 343l685 334 27-57c14-31 42-104 61-162zm-10949-210c380-138 705-257 722-264l32-13-16-56-15-56h-769-768v76c0 101 24 263 60 399 31 121 46 165 56 165 4 0 318-113 698-251zm3025 164c25-83 56-222 50-227s-913-16-907-11c5 5 820 304 830 305 4 0 16-30 27-67zm4904-287c405-100 739-185 742-187 2-3 1-29-2-60l-5-55-747-78c-410-43-755-79-766-80-19-1-20 6-23 171-2 115 2 206 12 270 19 126 36 203 44 203 4-1 339-83 745-184zm-4142-73c-49-49-87-97-102-130-23-50-25-52-65-53-28 0-44 5-48 15-3 8-15 15-26 15-17 0-20 6-20 50s3 50 21 50 20 5 17 53c-3 47-5 52-25 49-16-2-23 2-23 12 0 14 23 16 175 16h174zm-696 57c3-5 9-64 12-130l6-120h-196c-230 0-537 13-952 40-369 25-417 30-412 43 2 6 93 45 203 86l199 75 220 6c385 11 913 11 920 0zm-1256-5c-3-2-72-29-155-59-149-54-149-54-161-33-19 34-16 42 24 70 36 26 43 27 167 27 71 0 127-2 125-5zm9208-297c-4-228-26-398-51-398-6 0-342 83-746 183l-735 182-3 48c-2 26-2 47 0 47 65 9 1475 158 1502 159l38 1zm-10311-44c5-30 7-57 3-60-15-9-1414-516-1428-518-33-3-108 323-118 512l-6 122h769 770zm7952-36c6-29 9-55 4-60-11-11-1358-668-1370-668-15 0-79 159-117 290-34 117-72 317-62 326 5 6 1434 161 1497 163 34 1 36 0 48-51zm2302-380c0-66-169-465-227-537l-20-24-634 427c-678 457-646 431-621 497l11 27 745-187c622-155 746-189 746-203zm-10223 270c6-24 13-52 17-63 4-17-89-99-567-498l-572-479-23 29c-104 127-308 480-300 521 2 10 248 104 708 272 388 142 710 258 715 259 6 1 15-18 22-41zm7991-34 32-45-107-114c-60-62-299-311-533-553l-425-441-48 47c-61 59-164 186-223 274-55 84-118 197-112 203s1371 674 1379 675c3 0 20-21 37-46zm-7053 16c109-10 118-13 690-221 319-116 583-214 588-218 7-7-28-106-45-126-5-5-148-33-317-60l-309-51-399 334c-219 184-399 338-401 343-5 12 56 11 193-1zm8366-411c333-224 616-416 628-426l23-19-62-84c-64-86-292-322-343-355-27-17-28-17-42 1-7 10-211 291-453 623l-440 605 30 38c17 20 36 34 42 31 6-4 284-190 617-414zm-7746 370c116-6 334-14 485-18l275-6-3-35c-4-44-49-231-65-269l-12-28-504 183c-277 101-506 186-510 190-3 3 23 4 59 0 36-3 160-11 275-17zm-451-321c206-172 375-316 375-319 1-3-101-22-226-42-182-30-229-35-239-25-6 7-93 155-193 328l-181 314 32 33c18 19 38 31 45 29 7-3 181-146 387-318zm1808 233c48-102 131-187 228-233 38-18 69-35 69-38 1-5-520-91-546-90-7 0-9 9-4 28 6 20 14 27 31 27s26 8 30 25c21 80 21 80 0 80-23 0-24 10-9 63 7 27 15 37 30 37 21 0 24 5 34 63 5 33 3 39-14 44-15 4-21 13-21 33 0 32 11 36 90 39l45 1zm5191 12c23-15 44-28 46-30 2-1-137-319-310-707l-313-704-96 48c-53 27-144 80-201 119-107 72-239 177-239 190 0 7 1060 1111 1067 1111 2 0 22-12 46-27zm931-601c245-337 446-617 446-621 0-41-535-312-560-284-5 6-342 1166-425 1463-4 16 75 72 86 61 4-3 208-282 453-619zm-8962 585c18-19 41-38 52-44 17-9-12-64-344-639-200-346-366-633-371-638-9-10-112 53-223 137-91 70-276 244-275 261 0 7 1102 943 1126 955 0 1 16-14 35-32zm717-316c100-172 180-315 179-317-5-4-302-54-325-54-17 0-24 26-66 268-25 147-49 292-52 322l-6 56 43 21c24 11 44 20 45 19 0 0 83-142 182-315zm7472 273c33-6 39-10 39-31 0-23-10-176-75-1098-14-192-25-365-25-384v-34l-72 7c-153 15-485 97-547 135-12 8 46 146 300 715 226 509 317 705 327 701 8-3 31-8 53-11zm400-714c115-399 210-732 211-740 7-34-309-90-507-90h-125l1 28c0 15 24 360 52 767l52 739 45 12c25 7 49 11 54 10s102-328 217-726zm-8413 650c57-27 58-29 41-112-11-55-14-58-185-223-96-92-182-181-190-198-21-39-14-105 14-144 11-16 39-38 61-48 36-16 49-17 112-6 40 6 73 10 75 8 9-9-123-721-135-725-56-19-591 169-591 207 0 9 667 1172 717 1249 8 13 17 22 21 20s31-14 60-28zm127-60c5-8-35-53-42-47-1 1 1 14 4 30 5 27 26 36 38 17zm170-313c20-115 34-212 30-215-7-7-328-61-334-56-2 1 8 66 22 143l25 139 84 84c46 45 93 98 104 116 25 43 24 44 69-211zm-308-40c-3-7-13-62-22-122-19-120-34-159-27-70 4 48 1 61-23 96-14 22-25 43-22 45 16 16 84 63 91 64 4 0 6-6 3-13zm1893 6c-1-29-201-333-219-333-8 0-295 239-299 249-1 4 109 25 245 47 288 48 273 46 273 37zm-414-230c90-75 164-140 164-144 0-15-149-166-233-235-86-73-236-179-242-172-5 6-353 608-351 609 4 4 446 77 470 78 23 1 61-26 192-136zm-522-272c130-225 173-307 164-313-37-25-228-112-309-142-100-36-267-82-272-75-7 8-141 789-136 793 2 2 83 17 179 33 125 21 178 26 187 19 6-6 91-148 187-315zm-531-140c38-216 67-395 64-398-13-13-222-33-347-32-132 0-265 11-278 23-7 8 117 728 128 739 8 9 338 67 355 63 5-1 40-179 78-395z" transform="matrix(.1 0 0 -.1 0 723)"/></svg>