<svg viewBox="0 0 213.12 172.52" xmlns="http://www.w3.org/2000/svg"><path d="m292.21 22.527c-.84.023-1.69.252-2.46.701l-49.88 28.797c-2.49 1.438-3.34 4.598-1.9 7.089l16.99 29.432c1.44 2.492 4.61 3.337 7.1 1.898l26.06-15.048v109.98c0 2.87 2.33 5.19 5.2 5.19h96.29c2.88 0 5.19-2.32 5.19-5.19v-110.14l26.34 15.204c2.49 1.439 5.65.594 7.09-1.898l16.99-29.432c1.44-2.491.59-5.651-1.9-7.089l-49.87-28.797c-1.01-.584-2.14-.791-3.21-.664-.21-.025-.41-.037-.63-.037h-27.58c-.41 3.273-9.41 5.893-20.44 5.893-11.02 0-20.02-2.62-20.43-5.893h-27.84c-.16 0-.33.014-.49.03-.21-.02-.41-.035-.62-.03z" fill="#fff" stroke="#000" stroke-width="4.468" transform="translate(-235.04 -20.292)"/></svg>