<svg height="905pt" preserveAspectRatio="xMidYMid meet" viewBox="0 0 1280 905" width="1280pt" xmlns="http://www.w3.org/2000/svg"><path d="m11240 7724c-74-9-198-36-260-56-76-24-216-93-286-139-67-45-250-187-358-279-143-121-302-256-447-380-251-216-545-448-749-592-80-56-394-281-514-368-49-36-141-107-203-158l-114-93-699 396-699 395h-2881c-2874 0-2881 0-2921-20-51-27-95-88-109-153-7-36-10-669-8-2087 3-1983 3-2036 22-2074 11-21 35-54 54-72l35-34h2919 2918l763 431c419 238 833 472 919 521 161 91 194 119 217 187 8 24 11 256 11 805v771l258 63c141 35 293 74 337 87 44 12 172 48 285 80 210 58 476 143 680 215 461 164 840 365 1080 572 301 261 505 667 528 1053 18 300-20 491-130 660-71 109-217 208-364 245-79 20-217 32-284 24zm260-201c82-22 132-56 195-129 141-167 191-391 151-674-40-282-158-513-371-725-221-221-507-406-885-572-120-53-180-77-430-169-80-29-380-126-475-153-38-11-140-40-225-64-168-49-596-167-604-167-4 0-6 87-6 193 0 105-5 209-11 230-17 61-62 102-202 182-73 41-138 78-145 83-15 10 119 110 503 375 479 331 664 474 1216 938 475 398 724 570 929 639 115 39 248 44 360 13zm-3984-2910c110-37 205-120 253-222 23-50 26-68 26-166 0-103-2-114-32-178-78-164-263-261-434-228-225 44-366 241-338 469 18 142 139 283 282 327 60 19 184 18 243-2z" transform="matrix(.1 0 0 -.1 0 905)"/></svg>