<svg width="153" height="50" viewBox="0 0 153 50" fill="none" xmlns="http://www.w3.org/2000/svg">
<path d="M54.7013 36.0998V27.3566H51.5586V23.2445H54.7013V18.1263H59.8799V23.2445H64.6061V27.3566H59.8799V35.9561C59.8799 37.6728 60.7524 38.6469 62.4894 38.6469C63.3943 38.6469 64.1537 38.4952 64.6465 38.3115V42.4636C63.8548 42.767 62.4571 42.9506 61.011 42.9506C56.8503 42.9506 54.6932 40.6351 54.6932 36.1078L54.7013 36.0998Z" fill="black"/>
<path d="M68.2188 23.2437H73.1711V27.6192C73.7367 24.8885 75.514 23.0201 78.6164 23.0201C79.1819 23.0201 79.7474 23.06 80.1271 23.1718V28.0345C79.7474 28.0025 79.3677 28.0025 78.883 28.0025C75.4009 28.0025 73.3974 30.1344 73.3974 34.0549V42.6943H68.2188V23.2596V23.2437Z" fill="black"/>
<path d="M83.4221 23.2423H88.6008V34.4927C88.6008 36.96 89.5864 38.7565 92.0424 38.7565C94.4984 38.7565 95.8233 37.1516 95.8233 34.4927V23.2423H100.97V42.677H96.0495V39.7227C95.1851 41.7428 93.3269 43.1241 90.4104 43.1241C85.757 43.1241 83.4141 39.9063 83.4141 35.1235V23.2343L83.4221 23.2423Z" fill="black"/>
<path d="M103.242 23.2438H108.461L113.155 36.9215L117.841 23.2438H123.019L115.797 42.6785H110.505L103.242 23.2438Z" fill="black"/>
<path d="M130.194 23.2438H125.016V42.6785H130.194V23.2438Z" fill="black"/>
<path d="M147.892 32.961C147.892 30.0067 146.075 27.0524 142.899 27.0524C139.724 27.0524 137.907 30.0067 137.907 32.961C137.907 35.9154 139.724 38.9016 142.899 38.9016C146.075 38.9016 147.892 35.9154 147.892 32.961ZM132.801 32.961C132.801 27.3159 136.961 22.7886 142.899 22.7886C148.838 22.7886 152.998 27.3159 152.998 32.961C152.998 38.6062 148.838 43.1335 142.899 43.1335C136.961 43.1335 132.801 38.6142 132.801 32.961Z" fill="black"/>
<path d="M127.654 14.7808C129.383 14.7808 130.789 16.1701 130.789 17.8788C130.789 19.5875 129.383 20.9769 127.654 20.9769C125.925 20.9769 124.52 19.5875 124.52 17.8788C124.52 16.1701 125.925 14.7808 127.654 14.7808Z" fill="black"/>
<mask id="mask0_2864_6442" style="mask-type:luminance" maskUnits="userSpaceOnUse" x="0" y="0" width="43" height="50">
<path d="M16.8769 13.8853C16.8769 12.52 18.008 10.9709 19.3976 10.4439L39.1345 2.95433V14.2926C39.1345 15.6579 38.0034 17.199 36.6138 17.726L31.314 19.7381L18.525 24.5928V28.0981L27.7997 24.5768V40.4104C27.7997 41.7758 26.6686 43.3248 25.2791 43.8438L16.8769 47.0297V19.4027L13.3707 20.7362V26.557L3.52242 30.2938V24.9441C3.52242 23.7145 4.54037 22.3331 5.78453 21.862L13.3707 18.9796V18.9955L16.7477 17.718L16.885 17.6461L27.8078 13.5021V19.3229L31.3221 17.9895V14.3964C31.3221 12.9511 30.7647 11.7774 29.7548 11.0907C28.6641 10.3481 27.1291 10.2683 25.5537 10.8592L16.8931 14.1488V13.8774L16.8769 13.8853ZM36.6138 0.415203L19.2441 7.00256C16.0044 8.23219 13.3626 11.8413 13.3626 15.0511V15.4823L5.62295 18.4206C2.52063 19.5944 0 23.0517 0 26.1179V29.3916C0 30.8368 0.557447 32.0185 1.56732 32.7052C2.65798 33.4478 4.19298 33.5276 5.76837 32.9368L13.3545 30.0543V45.8879C13.3545 47.405 13.9362 48.6266 14.9945 49.3453C15.6328 49.7764 16.4084 50 17.2567 50C17.9353 50 18.6543 49.8643 19.3814 49.5848L25.4083 47.2932C28.648 46.0636 31.2898 42.4545 31.2898 39.2447V23.2514L36.7431 21.1753C39.9828 19.9457 42.6246 16.3366 42.6246 13.1268V4.1121C42.6246 2.603 42.0429 1.37336 40.9845 0.654743C40.3463 0.215586 39.5707 0 38.7144 0C38.0357 0 37.3167 0.13574 36.5896 0.415203" fill="white"/>
</mask>
<g mask="url(#mask0_2864_6442)">
<path d="M21.3246 -21.0675L-25.2852 24.9984L21.3246 71.0642L67.9344 24.9984L21.3246 -21.0675Z" fill="black"/>
</g>
</svg>
