<svg width="125" height="42" viewBox="0 0 125 42" fill="none" xmlns="http://www.w3.org/2000/svg">
<path d="M44.6918 29.8408V22.6133H42.1243V19.214H44.6918V14.9831H48.9227V19.214H52.784V22.6133H48.9227V29.722C48.9227 31.1411 49.6356 31.9464 51.0547 31.9464C51.7939 31.9464 52.4144 31.821 52.817 31.6692V35.1014C52.1702 35.3522 51.0283 35.504 49.8468 35.504C46.4476 35.504 44.6852 33.5899 44.6852 29.8474L44.6918 29.8408Z" fill="#400685"/>
<path d="M55.7346 19.2141H59.7807V22.8311C60.2427 20.5738 61.6948 19.0293 64.2294 19.0293C64.6914 19.0293 65.1535 19.0623 65.4637 19.1547V23.1744C65.1535 23.148 64.8433 23.148 64.4472 23.148C61.6024 23.148 59.9655 24.9103 59.9655 28.1511V35.2928H55.7346V19.2273V19.2141Z" fill="#400685"/>
<path d="M68.1563 19.2141H72.3872V28.5141C72.3872 30.5537 73.1924 32.0388 75.199 32.0388C77.2055 32.0388 78.288 30.7121 78.288 28.5141V19.2141H82.4925V35.2796H78.4728V32.8375C77.7665 34.5074 76.2484 35.6493 73.8657 35.6493C70.0638 35.6493 68.1497 32.9893 68.1497 29.0356V19.2075L68.1563 19.2141Z" fill="#400685"/>
<path d="M84.3477 19.2141H88.6116L92.4464 30.5207L96.2747 19.2141H100.506L94.6048 35.2796H90.2815L84.3477 19.2141Z" fill="#400685"/>
<path d="M106.367 19.2141H102.136V35.2796H106.367V19.2141Z" fill="#400685"/>
<path d="M120.829 27.2468C120.829 24.8047 119.344 22.3625 116.75 22.3625C114.156 22.3625 112.671 24.8047 112.671 27.2468C112.671 29.689 114.156 32.1576 116.75 32.1576C119.344 32.1576 120.829 29.689 120.829 27.2468ZM108.499 27.2468C108.499 22.5803 111.898 18.8378 116.75 18.8378C121.601 18.8378 125 22.5803 125 27.2468C125 31.9134 121.601 35.6559 116.75 35.6559C111.898 35.6559 108.499 31.92 108.499 27.2468Z" fill="#400685"/>
<path d="M104.294 12.2175C105.706 12.2175 106.855 13.366 106.855 14.7785C106.855 16.191 105.706 17.3395 104.294 17.3395C102.881 17.3395 101.733 16.191 101.733 14.7785C101.733 13.366 102.881 12.2175 104.294 12.2175Z" fill="#400685"/>
<mask id="mask0_523_3786" style="mask-type:luminance" maskUnits="userSpaceOnUse" x="0" y="0" width="35" height="42">
<path d="M13.7884 11.4782C13.7884 10.3496 14.7124 9.06906 15.8477 8.63343L31.9726 2.44218V11.8149C31.9726 12.9435 31.0486 14.2174 29.9133 14.6531L25.5834 16.3164L15.1349 20.3295V23.2271L22.7122 20.3163V33.405C22.7122 34.5337 21.7881 35.8142 20.6529 36.2432L13.7884 38.8768V16.0392L10.9238 17.1414V21.9532L2.8778 25.0422V20.6199C2.8778 19.6034 3.70946 18.4615 4.72593 18.0721L10.9238 15.6893V15.7025L13.6828 14.6465L13.795 14.5871L22.7188 11.1614V15.9732L25.59 14.8709V11.9007C25.59 10.706 25.1346 9.73571 24.3095 9.16807C23.4184 8.55422 22.1644 8.48822 20.8773 8.97665L13.8016 11.6961V11.4716L13.7884 11.4782ZM29.9133 0.343225L15.7223 5.78862C13.0755 6.8051 10.9172 9.78851 10.9172 12.4419V12.7983L4.59392 15.2273C2.05934 16.1976 0 19.0556 0 21.5902V24.2964C0 25.4911 0.455431 26.4679 1.28049 27.0356C2.17155 27.6494 3.42564 27.7154 4.71273 27.227L10.9106 24.8442V37.933C10.9106 39.1871 11.3858 40.1969 12.2505 40.791C12.7719 41.1474 13.4055 41.3322 14.0986 41.3322C14.653 41.3322 15.2405 41.22 15.8345 40.989L20.7585 39.0946C23.4052 38.0782 25.5636 35.0948 25.5636 32.4414V19.2206L30.0189 17.5045C32.6657 16.488 34.8241 13.5046 34.8241 10.8512V3.39925C34.8241 2.15176 34.3488 1.13528 33.4841 0.541239C32.9627 0.178213 32.3291 0 31.6294 0C31.075 0 30.4875 0.112208 29.8935 0.343225" fill="white"/>
</mask>
<g mask="url(#mask0_523_3786)">
<path d="M17.4237 -17.415L-20.6562 20.6651L17.4237 58.7451L55.5037 20.6651L17.4237 -17.415Z" fill="url(#paint0_linear_523_3786)"/>
</g>
<defs>
<linearGradient id="paint0_linear_523_3786" x1="32.9437" y1="2.64015" x2="8.37061" y2="27.2131" gradientUnits="userSpaceOnUse">
<stop stop-color="#FFAF00"/>
<stop offset="0.09" stop-color="#FFAF00"/>
<stop offset="0.41" stop-color="#00B734"/>
<stop offset="0.49" stop-color="#00A76B"/>
<stop offset="0.62" stop-color="#008FC4"/>
<stop offset="0.67" stop-color="#0583BE"/>
<stop offset="0.75" stop-color="#1365B0"/>
<stop offset="0.86" stop-color="#2A339A"/>
<stop offset="0.95" stop-color="#400685"/>
<stop offset="1" stop-color="#400685"/>
</linearGradient>
</defs>
</svg>
