<svg height="40.398" width="150.159" xmlns="http://www.w3.org/2000/svg" xmlns:xlink="http://www.w3.org/1999/xlink"><clipPath id="a"><path d="m0 0h150.159v40.398h-150.159z"/></clipPath><g clip-path="url(#a)"><g fill="#141b4d"><path d="m115.489 6.808-6.441 33.4 15.518.017 1.553-8.353h-7l4.881-25.064z"/><path d="m144.094 14.2a16.094 16.094 0 0 1 4.618.766l1.447-7.7a36.011 36.011 0 0 0 -5.781-.476c-9.236 0-13.574 5.5-13.574 11.664 0 8.079 8.209 7.985 8.209 11.427 0 1.721-1.211 2.677-3.823 2.677a18.941 18.941 0 0 1 -5.833-1l-1.579 8.254a36.621 36.621 0 0 0 6.571.586c8.254 0 14.036-5.5 14.036-12.142 0-7.842-8.252-7.984-8.252-11.427 0-1.529 1.025-2.629 3.961-2.629"/><path d="m102.356 6.816c-12.685 0-20.827 9.5-20.827 21.156 0 7.293 3.837 12.329 13.527 12.329a29.064 29.064 0 0 0 11.113-2.1l3.112-16.132h-8.517l-1.825 9.837a9.931 9.931 0 0 1 -2.341.239c-4.257 0-5.8-2.348-5.8-5.467 0-5.8 3.556-11.8 10.81-11.8a21.752 21.752 0 0 1 6.266 1c.2.059.412.124.629.2a11.93 11.93 0 0 1 1.778.75l1.728-8.728a38.291 38.291 0 0 0 -9.653-1.284"/></g><path d="m38.62 6.917-2.284 11.083h15.758c-13.055 19.342-38.969 16.058-45.823 8.038-5.899-6.908-.802-18.732 16.686-26.038-17.31 5.267-27.028 19.1-21.319 28.417 6.471 10.558 26.648 14.962 44.582 9.837 11.98-4.212 17.097-10.113 18.966-13.294l-2.934 15.34h11.779l6.389-33.383z" fill="#fcbf00"/></g></svg>